<?xml version="1.0" encoding="UTF-8" standalone="no"?>
<svg xmlns:dc="http://purl.org/dc/elements/1.1/" xmlns:cc="http://creativecommons.org/ns#" xmlns:rdf="http://www.w3.org/1999/02/22-rdf-syntax-ns#" xmlns:svg="http://www.w3.org/2000/svg" xmlns="http://www.w3.org/2000/svg" xmlns:xlink="http://www.w3.org/1999/xlink" xmlns:sodipodi="http://sodipodi.sourceforge.net/DTD/sodipodi-0.dtd" xmlns:inkscape="http://www.inkscape.org/namespaces/inkscape" xml:space="preserve" width="272" height="247" viewBox="0 0 272.44444 247" id="svg2" version="1.1" inkscape:version="0.91 r13725" sodipodi:docname="Cedar_tiles.svg" style="fill-rule:evenodd;image-rendering:optimizeQuality;shape-rendering:geometricPrecision;text-rendering:geometricPrecision"><title id="title3373">Cedrus libani tiles</title><metadata id="metadata53"><rdf:RDF><cc:Work rdf:about=""><dc:format>image/svg+xml</dc:format><dc:type rdf:resource="http://purl.org/dc/dcmitype/StillImage" /><dc:title>Cedrus libani tiles</dc:title><dc:description>A tiled motif of the Cedrus libani, derived from a file of an image of the Flag of Lebanon in the Public Domain from openclipart.org</dc:description><dc:date>2017-11-07</dc:date><dc:creator><cc:Agent><dc:title>Ahmad Gharbeia</dc:title></cc:Agent></dc:creator><dc:source>https://openclipart.org/detail/17769/flag-of-lebanon</dc:source><dc:subject><rdf:Bag><rdf:li>Lebanon</rdf:li><rdf:li>cedar</rdf:li><rdf:li>cedrus</rdf:li><rdf:li>أرز</rdf:li><rdf:li>لبنان</rdf:li></rdf:Bag></dc:subject><cc:license rdf:resource="Public Domain" /></cc:Work></rdf:RDF></metadata><defs id="defs51" /><sodipodi:namedview pagecolor="#fff" bordercolor="#666" borderopacity="1" objecttolerance="10" gridtolerance="10" guidetolerance="10" inkscape:pageopacity="0" inkscape:pageshadow="2" inkscape:window-width="1366" inkscape:window-height="744" id="namedview49" showgrid="false" fit-margin-top="0" fit-margin-left="0" fit-margin-right="0" fit-margin-bottom="0" inkscape:zoom="0.5" inkscape:cx="42.80231" inkscape:cy="352.06084" inkscape:window-x="0" inkscape:window-y="24" inkscape:window-maximized="1" inkscape:current-layer="svg2" /><path style="fill:#00813b" d="m 127.44449,-1.0000967 c -7,14.9999997 -12,14.9999997 -25,24.9999997 -5,5 -13,8 -3,13 -10,5 -15,7 -20,17 l 3,3 c 0,0 9,-5 10,-3 2,2 -13,10 -15,11 -1,1 -10,7 -10,7 -13,10 -19.999996,7 -27.999996,23.000004 L 64.44449,91.999903 c 5,17.999997 -11.999996,19.999997 -24.999996,27.999997 l -20,12 c 5,18 20,8 33,3 l 1.999996,2 0,5 -24.999996,13 c 0,0 -29.99999956,17 -29.99999956,18 -1.00000004,1 0,5 0,5 9.99999956,2 24.99999956,5 34.99999956,0 13,-5 15,-10 29.999996,-10 -16.999996,12 -29.999996,17 -49.999996,20 l 0,10 c 15,0 25,0 38,-3 l 31.999996,-10 c 8,0 15,8 13,15 -8,28 -38,23 -47.999996,46 l 39.999996,-15 c 10,-6 21,-11 33,-8 15,5 15,15 35,20 l -5,-12 c 5,2 11,2 16,5 12,5 15,10 30,7 -13,-15 -15,-12 -25,-23 -10,-15 -16,-37 0,-40 l 17,5 c 18,3 18,-2 43,8 15,5 20,12 38,7 -8,-17 -35,-30 -53,-35 20,-13 15,5 43,-2 l 0,-5 c -20,-16 -28,-28 -56,-28 l 43,-5 0,-5 c 0,0 -42,-11 -43,-12 0,-1 1,-3 4,-4 8,5 32,4 34,4 -1,-6 -12,-10.999993 -22,-15.999997 0,0 -44,-27 -44,-29 1,-7 18,1 36,6 -5,-10 -15,-15 -25,-17 l 15,-3 c -10,-22 -35,-20 -51,-30 -10,-8 -10,-12.9999997 -25,-19.9999997 z m -23,47.9999997 c 1,2 -5,6 -7,5 1,-1 7,-5 7,-5 z m 42.33008,4.607421 c 1.64575,0.02564 3.23242,0.517579 3.66992,1.392579 1,4 -9,4 -8,1 0,-1.6875 2.21412,-2.425538 4.33008,-2.392579 z m -14.64453,1.060547 c 0.65772,0.0271 1.12695,0.144532 1.31445,0.332032 2,4 -9,9 -13,6 2.4375,-4.875 8.83545,-6.449463 11.68555,-6.332032 z m 28.57227,2.001953 c 1.10107,0.04028 2.11718,0.392579 2.74218,1.330079 3,4 -8,0 -8,0 0,0 2.83545,-1.418702 5.25782,-1.330079 z m -48.25782,4.330079 c 4,0 2,5 2,5 0,0 -16,14 -16,9 1,-6 14,-14 14,-14 z m 22.71875,17.560546 c 1.167,0.05249 1.96875,0.501954 2.28125,1.439454 2,5 -21,8 -14,3 4.8125,-2.75 9.15137,-4.554932 11.71875,-4.439454 z m 15.20313,0.353516 c 0.34424,-0.0037 0.70312,0.02344 1.07812,0.08594 7,5 -8,7 -8,7 0,0 1.75831,-7.031006 6.92188,-7.085938 z M 97.6984,81.417871 c 2.49609,-0.105468 4.74609,0.457032 4.74609,1.582032 1,1 -5,11.000004 -10,5 -3.75,-4.375 1.09375,-6.40625 5.25391,-6.582032 z m 69.45703,0.08984 c 5.7991,0.09384 8.07031,5.929688 7.28906,7.492188 -3,3 -23,-1 -13,-6 2.1875,-1.09375 4.08719,-1.518464 5.71094,-1.492188 z m -83.71094,5.492188 c 2,0 3,5 4,5.999998 0,1 -9,7.999993 -11,6.999996 -1,0 -6,-7.999994 -5,-9.999994 1,-1 10,-3 12,-3 z m 109.04883,10.169918 c 4.63379,-0.0952 9.76367,4.017573 8.95117,4.830073 0,1 -13,0 -12,-3.999993 0.9375,-0.5625 1.9795,-0.8081 3.04883,-0.83008 z m -67.78515,10.472653 c 4.4707,0.0137 3.48632,5.48242 1.73632,6.35742 -2,2 -10,-4 -4,-6 0.875,-0.25 1.625,-0.35937 2.26368,-0.35742 z m -19.51563,4.24805 c 3.73535,-0.1648 7.25195,5.10937 7.25195,5.10937 0,0 -12,-1 -8,-5 0.25,-0.0625 0.49903,-0.0984 0.74805,-0.10937 z m 32.50781,0.91211 c 5.0073,-0.27192 5.58789,8.66602 4.74414,11.19727 -3,1 -15,-5 -8,-10.00001 1.25,-0.78125 2.32859,-1.14691 3.25586,-1.19726 z m -54.89648,13.97852 c 2.01562,0.0937 2.89062,0.71875 1.64062,2.21875 -4,5 -18,7 -20,7 -1,0 -4,-5 -4,-5 0,0 16.3125,-4.5 22.35938,-4.21875 z m 104.87891,15.62109 c 3.03466,0.0195 5.88671,0.72266 7.76171,2.59766 7,9 -23,4 -22,2 0,-1.375 7.56202,-4.64063 14.23829,-4.59766 z m 20.16796,5.67773 c 6.11231,0.19605 12.34375,4.79493 9.59375,8.91993 -3,5 -15,2 -17,-6 1.875,-2.1875 4.62793,-3.00904 7.40625,-2.91993 z m -116.79882,1.28125 c 0.57531,-0.0259 1.36132,0.16993 2.39257,0.63868 11,5 9,11 7,17 -0.90625,3.625 -14.95398,-17.38822 -9.39257,-17.63868 z m 36.53711,4.56446 c 5.79345,0.17212 12.35546,8.19922 4.85546,10.07422 -8,2 -8,-10 -6,-10 0.375,-0.0625 0.75831,-0.0857 1.14454,-0.0742 z m -14.14454,1.07422 c 2,0 6,11 1,10 -4,-2 -3,-10 -1,-10 z" id="path7" inkscape:connector-curvature="0" inkscape:tile-cx="132.61176" inkscape:tile-cy="129.72852" inkscape:tile-w="272.44444" inkscape:tile-h="247" inkscape:tile-x0="-3.6104604" inkscape:tile-y0="6.228516" /></svg>
